<mxfile host="Electron" agent="Mozilla/5.0 (Windows NT 10.0; Win64; x64) AppleWebKit/537.36 (KHTML, like Gecko) draw.io/26.2.2 Chrome/134.0.6998.178 Electron/35.1.2 Safari/537.36" version="26.2.2" pages="2">
  <diagram id="1zcTAVt1k4KSup7FvAfL" name="Roadmap">
    <mxGraphModel dx="10193" dy="6369" grid="1" gridSize="10" guides="1" tooltips="1" connect="1" arrows="1" fold="1" page="1" pageScale="1" pageWidth="3300" pageHeight="2339" math="0" shadow="0">
      <root>
        <mxCell id="3D7FDG2aXA9G618_Kong-0" />
        <mxCell id="3D7FDG2aXA9G618_Kong-1" parent="3D7FDG2aXA9G618_Kong-0" />
        <mxCell id="wGroBH12Sy7-OgBsN0fJ-2" value="" style="shape=rect;fillColor=#fff2cc;strokeColor=none;fontSize=24;html=1;whiteSpace=wrap;align=left;verticalAlign=top;spacing=5;rounded=0;" parent="3D7FDG2aXA9G618_Kong-1" vertex="1">
          <mxGeometry x="-2960" y="-1790" width="6440" height="180" as="geometry" />
        </mxCell>
        <mxCell id="wGroBH12Sy7-OgBsN0fJ-4" value="" style="shape=rect;fillColor=#fff2cc;strokeColor=none;fontSize=24;html=1;whiteSpace=wrap;align=left;verticalAlign=top;spacing=5;rounded=0;" parent="3D7FDG2aXA9G618_Kong-1" vertex="1">
          <mxGeometry x="-3000" y="-2000" width="6440" height="196.8" as="geometry" />
        </mxCell>
        <mxCell id="wGroBH12Sy7-OgBsN0fJ-5" value="&amp;nbsp;Доработка функционала СМС нотификации при одобрении ставки депозита&amp;nbsp;" style="shape=rect;fillColor=#ffe6cc;strokeColor=#d79b00;fontSize=18;html=1;whiteSpace=wrap;align=left;verticalAlign=top;spacing=5;rounded=0;" parent="3D7FDG2aXA9G618_Kong-1" vertex="1">
          <mxGeometry x="-750" y="-1938.4" width="580" height="60" as="geometry" />
        </mxCell>
        <mxCell id="wGroBH12Sy7-OgBsN0fJ-6" value="&lt;div style=&quot;text-align: left;&quot;&gt;&lt;span style=&quot;background-color: transparent;&quot;&gt;Разработка функционала автоматического расчёта базовой ставки&lt;/span&gt;&lt;/div&gt;" style="shape=rect;fillColor=#ffe6cc;strokeColor=#d79b00;fontSize=18;html=1;whiteSpace=wrap;align=center;verticalAlign=top;spacing=5;rounded=0;" parent="3D7FDG2aXA9G618_Kong-1" vertex="1">
          <mxGeometry x="360" y="-1920" width="670" height="60" as="geometry" />
        </mxCell>
        <mxCell id="wGroBH12Sy7-OgBsN0fJ-7" value="АБС" style="rounded=0;whiteSpace=wrap;html=1;fillColor=#f5f5f5;fontColor=#333333;strokeColor=#666666;fontSize=18;" parent="3D7FDG2aXA9G618_Kong-1" vertex="1">
          <mxGeometry x="-3090" y="-2006.8" width="120" height="196.8" as="geometry" />
        </mxCell>
        <mxCell id="wGroBH12Sy7-OgBsN0fJ-8" value="Интернет-банк" style="rounded=0;whiteSpace=wrap;html=1;fillColor=#f5f5f5;fontColor=#333333;strokeColor=#666666;fontSize=18;" parent="3D7FDG2aXA9G618_Kong-1" vertex="1">
          <mxGeometry x="-3090" y="-1790" width="120" height="180" as="geometry" />
        </mxCell>
        <mxCell id="wGroBH12Sy7-OgBsN0fJ-9" value="Q1" style="shape=step;perimeter=stepPerimeter;whiteSpace=wrap;html=1;fixedSize=1;size=10;fillColor=#f5f5f5;strokeColor=#666666;fontSize=18;fontStyle=1;align=center;rounded=0;fontColor=#333333;" parent="3D7FDG2aXA9G618_Kong-1" vertex="1">
          <mxGeometry x="-2960" y="-2100" width="1610" height="74.4" as="geometry" />
        </mxCell>
        <mxCell id="wGroBH12Sy7-OgBsN0fJ-11" value="Интеграция с API Gateway" style="shape=rect;fillColor=#ffe6cc;strokeColor=#d79b00;fontSize=18;html=1;whiteSpace=wrap;align=center;verticalAlign=top;spacing=5;rounded=0;" parent="3D7FDG2aXA9G618_Kong-1" vertex="1">
          <mxGeometry x="-1470" y="-1750" width="480" height="60" as="geometry" />
        </mxCell>
        <mxCell id="wGroBH12Sy7-OgBsN0fJ-15" value="Разработка нового микросервиса по работе с депозитами" style="shape=rect;fillColor=#ffe6cc;strokeColor=#d79b00;fontSize=18;html=1;whiteSpace=wrap;align=center;verticalAlign=top;spacing=5;rounded=0;" parent="3D7FDG2aXA9G618_Kong-1" vertex="1">
          <mxGeometry x="-2870" y="-1740" width="1280" height="60" as="geometry" />
        </mxCell>
        <mxCell id="jt62BmLAVhqsEl4weTpL-0" value="Q2" style="shape=step;perimeter=stepPerimeter;whiteSpace=wrap;html=1;fixedSize=1;size=10;fillColor=#f5f5f5;strokeColor=#666666;fontSize=18;fontStyle=1;align=center;rounded=0;fontColor=#333333;" vertex="1" parent="3D7FDG2aXA9G618_Kong-1">
          <mxGeometry x="-1350" y="-2100" width="1610" height="74.4" as="geometry" />
        </mxCell>
        <mxCell id="jt62BmLAVhqsEl4weTpL-1" value="Q3" style="shape=step;perimeter=stepPerimeter;whiteSpace=wrap;html=1;fixedSize=1;size=10;fillColor=#f5f5f5;strokeColor=#666666;fontSize=18;fontStyle=1;align=center;rounded=0;fontColor=#333333;" vertex="1" parent="3D7FDG2aXA9G618_Kong-1">
          <mxGeometry x="260" y="-2100" width="1610" height="74.4" as="geometry" />
        </mxCell>
        <mxCell id="jt62BmLAVhqsEl4weTpL-2" value="Q4" style="shape=step;perimeter=stepPerimeter;whiteSpace=wrap;html=1;fixedSize=1;size=10;fillColor=#f5f5f5;strokeColor=#666666;fontSize=18;fontStyle=1;align=center;rounded=0;fontColor=#333333;" vertex="1" parent="3D7FDG2aXA9G618_Kong-1">
          <mxGeometry x="1870" y="-2100" width="1610" height="74.4" as="geometry" />
        </mxCell>
        <mxCell id="jt62BmLAVhqsEl4weTpL-5" style="edgeStyle=orthogonalEdgeStyle;rounded=0;orthogonalLoop=1;jettySize=auto;html=1;entryX=0.5;entryY=0;entryDx=0;entryDy=0;dashed=1;" edge="1" parent="3D7FDG2aXA9G618_Kong-1" source="jt62BmLAVhqsEl4weTpL-4" target="wGroBH12Sy7-OgBsN0fJ-9">
          <mxGeometry relative="1" as="geometry" />
        </mxCell>
        <mxCell id="jt62BmLAVhqsEl4weTpL-4" value="Для удоства предположим что это наш план с января" style="text;html=1;align=center;verticalAlign=middle;whiteSpace=wrap;rounded=0;strokeColor=default;dashed=1;" vertex="1" parent="3D7FDG2aXA9G618_Kong-1">
          <mxGeometry x="-2325" y="-2190" width="340" height="30" as="geometry" />
        </mxCell>
        <mxCell id="jt62BmLAVhqsEl4weTpL-6" value="Инфра" style="rounded=0;whiteSpace=wrap;html=1;fillColor=#f5f5f5;fontColor=#333333;strokeColor=#666666;fontSize=18;" vertex="1" parent="3D7FDG2aXA9G618_Kong-1">
          <mxGeometry x="-3090" y="-1590" width="120" height="180" as="geometry" />
        </mxCell>
        <mxCell id="jt62BmLAVhqsEl4weTpL-7" value="" style="shape=rect;fillColor=#fff2cc;strokeColor=none;fontSize=24;html=1;whiteSpace=wrap;align=left;verticalAlign=top;spacing=5;rounded=0;" vertex="1" parent="3D7FDG2aXA9G618_Kong-1">
          <mxGeometry x="-2960" y="-1590" width="6440" height="180" as="geometry" />
        </mxCell>
        <mxCell id="jt62BmLAVhqsEl4weTpL-10" value="RAC" style="rounded=0;whiteSpace=wrap;html=1;fillColor=#f5f5f5;fontColor=#333333;strokeColor=#666666;fontSize=18;" vertex="1" parent="3D7FDG2aXA9G618_Kong-1">
          <mxGeometry x="-3090" y="-1390" width="120" height="180" as="geometry" />
        </mxCell>
        <mxCell id="jt62BmLAVhqsEl4weTpL-11" value="" style="shape=rect;fillColor=#fff2cc;strokeColor=none;fontSize=24;html=1;whiteSpace=wrap;align=left;verticalAlign=top;spacing=5;rounded=0;" vertex="1" parent="3D7FDG2aXA9G618_Kong-1">
          <mxGeometry x="-2960" y="-1390" width="6440" height="180" as="geometry" />
        </mxCell>
        <mxCell id="jt62BmLAVhqsEl4weTpL-12" value="&lt;div style=&quot;text-align: left;&quot;&gt;&lt;span style=&quot;background-color: transparent;&quot;&gt;Тестирование функционала автоматического расчёта базовой ставки&lt;/span&gt;&lt;/div&gt;" style="shape=rect;fillColor=#ffe6cc;strokeColor=#d79b00;fontSize=18;html=1;whiteSpace=wrap;align=center;verticalAlign=top;spacing=5;rounded=0;" vertex="1" parent="3D7FDG2aXA9G618_Kong-1">
          <mxGeometry x="1080" y="-1920" width="760" height="60" as="geometry" />
        </mxCell>
        <mxCell id="jt62BmLAVhqsEl4weTpL-13" value="&lt;div style=&quot;text-align: left;&quot;&gt;&lt;span style=&quot;background-color: transparent;&quot;&gt;Разработка функционала по автоматической загрузке базовых ставок на удалённый сервер&lt;/span&gt;&lt;/div&gt;" style="shape=rect;fillColor=#ffe6cc;strokeColor=#d79b00;fontSize=18;html=1;whiteSpace=wrap;align=center;verticalAlign=top;spacing=5;rounded=0;" vertex="1" parent="3D7FDG2aXA9G618_Kong-1">
          <mxGeometry x="-2890" y="-1938.4" width="620" height="60" as="geometry" />
        </mxCell>
        <mxCell id="jt62BmLAVhqsEl4weTpL-14" value="&lt;div style=&quot;text-align: left;&quot;&gt;&lt;span style=&quot;background-color: transparent;&quot;&gt;Тестирование функционала по автоматической загрузке базовых ставок на удалённый сервер&lt;/span&gt;&lt;/div&gt;" style="shape=rect;fillColor=#ffe6cc;strokeColor=#d79b00;fontSize=18;html=1;whiteSpace=wrap;align=center;verticalAlign=top;spacing=5;rounded=0;" vertex="1" parent="3D7FDG2aXA9G618_Kong-1">
          <mxGeometry x="-2180" y="-1938.4" width="460" height="60" as="geometry" />
        </mxCell>
        <mxCell id="jt62BmLAVhqsEl4weTpL-15" value="Разворачивание и настройка API Gateway" style="shape=rect;fillColor=#ffe6cc;strokeColor=#d79b00;fontSize=18;html=1;whiteSpace=wrap;align=center;verticalAlign=top;spacing=5;rounded=0;" vertex="1" parent="3D7FDG2aXA9G618_Kong-1">
          <mxGeometry x="-2820" y="-1540" width="440" height="60" as="geometry" />
        </mxCell>
        <mxCell id="jt62BmLAVhqsEl4weTpL-16" value="Получение консультации по внедрению RAC" style="shape=rect;fillColor=#ffe6cc;strokeColor=#d79b00;fontSize=18;html=1;whiteSpace=wrap;align=center;verticalAlign=top;spacing=5;rounded=0;" vertex="1" parent="3D7FDG2aXA9G618_Kong-1">
          <mxGeometry x="-2870" y="-1340" width="710" height="60" as="geometry" />
        </mxCell>
        <mxCell id="jt62BmLAVhqsEl4weTpL-17" value="Покупка необходимого оборудования и лицензий для создания инфраструктуры в другом ЦОД" style="shape=rect;fillColor=#ffe6cc;strokeColor=#d79b00;fontSize=18;html=1;whiteSpace=wrap;align=center;verticalAlign=top;spacing=5;rounded=0;" vertex="1" parent="3D7FDG2aXA9G618_Kong-1">
          <mxGeometry x="-2320" y="-1580" width="1530" height="60" as="geometry" />
        </mxCell>
        <mxCell id="jt62BmLAVhqsEl4weTpL-18" value="Закупка необходимого оборудования и лицензий" style="shape=rect;fillColor=#ffe6cc;strokeColor=#d79b00;fontSize=18;html=1;whiteSpace=wrap;align=center;verticalAlign=top;spacing=5;rounded=0;" vertex="1" parent="3D7FDG2aXA9G618_Kong-1">
          <mxGeometry x="-2100" y="-1340" width="700" height="60" as="geometry" />
        </mxCell>
        <mxCell id="jt62BmLAVhqsEl4weTpL-19" value="Покупка и настройка GSLB" style="shape=rect;fillColor=#ffe6cc;strokeColor=#d79b00;fontSize=18;html=1;whiteSpace=wrap;align=center;verticalAlign=top;spacing=5;rounded=0;" vertex="1" parent="3D7FDG2aXA9G618_Kong-1">
          <mxGeometry x="-620" y="-1530" width="630" height="60" as="geometry" />
        </mxCell>
        <mxCell id="jt62BmLAVhqsEl4weTpL-20" value="Начальная настройка кластера" style="shape=rect;fillColor=#ffe6cc;strokeColor=#d79b00;fontSize=18;html=1;whiteSpace=wrap;align=center;verticalAlign=top;spacing=5;rounded=0;" vertex="1" parent="3D7FDG2aXA9G618_Kong-1">
          <mxGeometry x="-1340" y="-1340" width="540" height="60" as="geometry" />
        </mxCell>
        <mxCell id="jt62BmLAVhqsEl4weTpL-21" value="Интеграция микросервиса по работе с депозитами" style="shape=rect;fillColor=#ffe6cc;strokeColor=#d79b00;fontSize=18;html=1;whiteSpace=wrap;align=center;verticalAlign=top;spacing=5;rounded=0;" vertex="1" parent="3D7FDG2aXA9G618_Kong-1">
          <mxGeometry x="-930" y="-1750" width="360" height="60" as="geometry" />
        </mxCell>
        <mxCell id="jt62BmLAVhqsEl4weTpL-22" value="Разворачивание и настройка системы для работы в режиме Active-Active" style="shape=rect;fillColor=#ffe6cc;strokeColor=#d79b00;fontSize=18;html=1;whiteSpace=wrap;align=center;verticalAlign=top;spacing=5;rounded=0;" vertex="1" parent="3D7FDG2aXA9G618_Kong-1">
          <mxGeometry x="80" y="-1530" width="1110" height="60" as="geometry" />
        </mxCell>
        <mxCell id="jt62BmLAVhqsEl4weTpL-23" value="Тестирование микросервиса по работе с депозитами" style="shape=rect;fillColor=#ffe6cc;strokeColor=#d79b00;fontSize=18;html=1;whiteSpace=wrap;align=center;verticalAlign=top;spacing=5;rounded=0;" vertex="1" parent="3D7FDG2aXA9G618_Kong-1">
          <mxGeometry x="-500" y="-1750" width="670" height="60" as="geometry" />
        </mxCell>
        <mxCell id="jt62BmLAVhqsEl4weTpL-24" value="Сопровождение и мониторинг микросервиса по работе с депозитами" style="shape=rect;fillColor=#ffe6cc;strokeColor=#d79b00;fontSize=18;html=1;whiteSpace=wrap;align=center;verticalAlign=top;spacing=5;rounded=0;" vertex="1" parent="3D7FDG2aXA9G618_Kong-1">
          <mxGeometry x="270" y="-1760" width="3150" height="60" as="geometry" />
        </mxCell>
        <mxCell id="jt62BmLAVhqsEl4weTpL-25" value="Пробная миграция и тестирование" style="shape=rect;fillColor=#ffe6cc;strokeColor=#d79b00;fontSize=18;html=1;whiteSpace=wrap;align=center;verticalAlign=top;spacing=5;rounded=0;" vertex="1" parent="3D7FDG2aXA9G618_Kong-1">
          <mxGeometry x="-730" y="-1340" width="580" height="60" as="geometry" />
        </mxCell>
        <mxCell id="jt62BmLAVhqsEl4weTpL-26" value="Настройка репликации между кластерами" style="shape=rect;fillColor=#ffe6cc;strokeColor=#d79b00;fontSize=18;html=1;whiteSpace=wrap;align=center;verticalAlign=top;spacing=5;rounded=0;" vertex="1" parent="3D7FDG2aXA9G618_Kong-1">
          <mxGeometry x="330" y="-1340" width="630" height="60" as="geometry" />
        </mxCell>
        <mxCell id="jt62BmLAVhqsEl4weTpL-27" value="Разворачивание и настройка удалённого файлового сервера" style="shape=rect;fillColor=#ffe6cc;strokeColor=#d79b00;fontSize=18;html=1;whiteSpace=wrap;align=center;verticalAlign=top;spacing=5;rounded=0;" vertex="1" parent="3D7FDG2aXA9G618_Kong-1">
          <mxGeometry x="-2340" y="-1480" width="325" height="60" as="geometry" />
        </mxCell>
        <mxCell id="jt62BmLAVhqsEl4weTpL-28" value="Сопровождение и мониторинг" style="shape=rect;fillColor=#ffe6cc;strokeColor=#d79b00;fontSize=18;html=1;whiteSpace=wrap;align=center;verticalAlign=top;spacing=5;rounded=0;" vertex="1" parent="3D7FDG2aXA9G618_Kong-1">
          <mxGeometry x="1090" y="-1350" width="2330" height="60" as="geometry" />
        </mxCell>
        <mxCell id="jt62BmLAVhqsEl4weTpL-29" value="Финальная миграция" style="shape=rect;fillColor=#ffe6cc;strokeColor=#d79b00;fontSize=18;html=1;whiteSpace=wrap;align=center;verticalAlign=top;spacing=5;rounded=0;" vertex="1" parent="3D7FDG2aXA9G618_Kong-1">
          <mxGeometry x="-45" y="-1340" width="280" height="60" as="geometry" />
        </mxCell>
        <mxCell id="jt62BmLAVhqsEl4weTpL-32" value="Сопровождение и мониторинг" style="shape=rect;fillColor=#ffe6cc;strokeColor=#d79b00;fontSize=18;html=1;whiteSpace=wrap;align=center;verticalAlign=top;spacing=5;rounded=0;" vertex="1" parent="3D7FDG2aXA9G618_Kong-1">
          <mxGeometry x="1980" y="-1920" width="1390" height="60" as="geometry" />
        </mxCell>
        <mxCell id="jt62BmLAVhqsEl4weTpL-33" value="Сопровождение и мониторинг" style="shape=rect;fillColor=#ffe6cc;strokeColor=#d79b00;fontSize=18;html=1;whiteSpace=wrap;align=center;verticalAlign=top;spacing=5;rounded=0;" vertex="1" parent="3D7FDG2aXA9G618_Kong-1">
          <mxGeometry x="1260" y="-1530" width="2150" height="60" as="geometry" />
        </mxCell>
      </root>
    </mxGraphModel>
  </diagram>
  <diagram id="6faDem5PxRRIMGQd80wj" name="Roadmap_change">
    <mxGraphModel grid="1" page="1" gridSize="10" guides="1" tooltips="1" connect="1" arrows="1" fold="1" pageScale="1" pageWidth="3300" pageHeight="2339" math="0" shadow="0">
      <root>
        <mxCell id="0" />
        <mxCell id="1" parent="0" />
        <mxCell id="QlwB00z0-otb056kdUWZ-19" value="" style="shape=rect;fillColor=#fff2cc;strokeColor=none;fontSize=24;html=1;whiteSpace=wrap;align=left;verticalAlign=top;spacing=5;rounded=0;" vertex="1" parent="1">
          <mxGeometry x="-2500" y="-530" width="1620" height="190" as="geometry" />
        </mxCell>
        <mxCell id="QlwB00z0-otb056kdUWZ-18" value="" style="shape=rect;fillColor=#fff2cc;strokeColor=none;fontSize=24;html=1;whiteSpace=wrap;align=left;verticalAlign=top;spacing=5;rounded=0;" vertex="1" parent="1">
          <mxGeometry x="-2500" y="-730" width="1620" height="180" as="geometry" />
        </mxCell>
        <mxCell id="QlwB00z0-otb056kdUWZ-17" value="" style="shape=rect;fillColor=#fff2cc;strokeColor=none;fontSize=24;html=1;whiteSpace=wrap;align=left;verticalAlign=top;spacing=5;rounded=0;" vertex="1" parent="1">
          <mxGeometry x="-2500" y="-930" width="1610" height="180" as="geometry" />
        </mxCell>
        <mxCell id="QlwB00z0-otb056kdUWZ-3" value="" style="shape=rect;fillColor=#fff2cc;strokeColor=none;fontSize=24;html=1;whiteSpace=wrap;align=left;verticalAlign=top;spacing=5;rounded=0;" vertex="1" parent="1">
          <mxGeometry x="-2500" y="-1146.8" width="1610" height="196.8" as="geometry" />
        </mxCell>
        <mxCell id="QlwB00z0-otb056kdUWZ-4" value="T1 - API сервиса интеграции депозитов АБС" style="shape=rect;fillColor=#ffe6cc;strokeColor=#d79b00;fontSize=18;html=1;whiteSpace=wrap;align=left;verticalAlign=top;spacing=5;rounded=0;" vertex="1" parent="1">
          <mxGeometry x="-2480" y="-1120" width="390" height="50" as="geometry" />
        </mxCell>
        <mxCell id="QlwB00z0-otb056kdUWZ-5" value="T2 - Передача файлов на SFTP-сервер" style="shape=rect;fillColor=#ffe6cc;strokeColor=#d79b00;fontSize=18;html=1;whiteSpace=wrap;align=center;verticalAlign=top;spacing=5;rounded=0;" vertex="1" parent="1">
          <mxGeometry x="-2120" y="-1040" width="550" height="60" as="geometry" />
        </mxCell>
        <mxCell id="QlwB00z0-otb056kdUWZ-6" value="АБС&lt;div&gt;Сервис интеграции депозитов&lt;/div&gt;" style="rounded=0;whiteSpace=wrap;html=1;fillColor=#f5f5f5;fontColor=#333333;strokeColor=#666666;fontSize=18;" vertex="1" parent="1">
          <mxGeometry x="-2630" y="-1146.8" width="120" height="196.8" as="geometry" />
        </mxCell>
        <mxCell id="QlwB00z0-otb056kdUWZ-7" value="SFTP" style="rounded=0;whiteSpace=wrap;html=1;fillColor=#f5f5f5;fontColor=#333333;strokeColor=#666666;fontSize=18;" vertex="1" parent="1">
          <mxGeometry x="-2630" y="-930" width="120" height="180" as="geometry" />
        </mxCell>
        <mxCell id="QlwB00z0-otb056kdUWZ-8" value="Q2" style="shape=step;perimeter=stepPerimeter;whiteSpace=wrap;html=1;fixedSize=1;size=10;fillColor=#f5f5f5;strokeColor=#666666;fontSize=18;fontStyle=1;align=center;rounded=0;fontColor=#333333;" vertex="1" parent="1">
          <mxGeometry x="-2500" y="-1240" width="1610" height="74.4" as="geometry" />
        </mxCell>
        <mxCell id="QlwB00z0-otb056kdUWZ-11" value="T5 - Вывод ставок пользователю системы колл-центра" style="shape=rect;fillColor=#ffe6cc;strokeColor=#d79b00;fontSize=18;html=1;whiteSpace=wrap;align=center;verticalAlign=top;spacing=5;rounded=0;" vertex="1" parent="1">
          <mxGeometry x="-1860" y="-640" width="940" height="50" as="geometry" />
        </mxCell>
        <mxCell id="QlwB00z0-otb056kdUWZ-12" value="T4 - Получение ставок через API интеграции АБС" style="shape=rect;fillColor=#ffe6cc;strokeColor=#d79b00;fontSize=18;html=1;whiteSpace=wrap;align=center;verticalAlign=top;spacing=5;rounded=0;" vertex="1" parent="1">
          <mxGeometry x="-2060" y="-720" width="480" height="60" as="geometry" />
        </mxCell>
        <mxCell id="QlwB00z0-otb056kdUWZ-13" value="T6 - Получение файлов с SFTP для операторов партнера" style="shape=rect;fillColor=#ffe6cc;strokeColor=#d79b00;fontSize=18;html=1;whiteSpace=wrap;align=center;verticalAlign=top;spacing=5;rounded=0;" vertex="1" parent="1">
          <mxGeometry x="-1560" y="-470" width="640" height="50" as="geometry" />
        </mxCell>
        <mxCell id="QlwB00z0-otb056kdUWZ-14" value="Система колл-центра" style="rounded=0;whiteSpace=wrap;html=1;fillColor=#f5f5f5;fontColor=#333333;strokeColor=#666666;fontSize=18;" vertex="1" parent="1">
          <mxGeometry x="-2630" y="-730" width="120" height="180" as="geometry" />
        </mxCell>
        <mxCell id="QlwB00z0-otb056kdUWZ-15" value="Система&amp;nbsp; партнерского колл-центра" style="rounded=0;whiteSpace=wrap;html=1;fillColor=#f5f5f5;fontColor=#333333;strokeColor=#666666;fontSize=18;" vertex="1" parent="1">
          <mxGeometry x="-2630" y="-530" width="120" height="190" as="geometry" />
        </mxCell>
        <mxCell id="QlwB00z0-otb056kdUWZ-16" value="T3 - Развернуть SFTP сервер" style="shape=rect;fillColor=#ffe6cc;strokeColor=#d79b00;fontSize=18;html=1;whiteSpace=wrap;align=center;verticalAlign=top;spacing=5;rounded=0;" vertex="1" parent="1">
          <mxGeometry x="-2400" y="-910" width="280" height="60" as="geometry" />
        </mxCell>
      </root>
    </mxGraphModel>
  </diagram>
</mxfile>
